<mxfile host="65bd71144e">
    <diagram id="xQyda192iYuIXAEOZKDh" name="PÃ¡gina-1">
        <mxGraphModel dx="1125" dy="800" grid="1" gridSize="10" guides="1" tooltips="1" connect="1" arrows="1" fold="1" page="1" pageScale="1" pageWidth="827" pageHeight="1169" math="0" shadow="0">
            <root>
                <mxCell id="0"/>
                <mxCell id="1" parent="0"/>
                <mxCell id="2" value="" style="edgeStyle=none;html=1;fontColor=#000000;" parent="1" source="3" target="41" edge="1">
                    <mxGeometry relative="1" as="geometry"/>
                </mxCell>
                <mxCell id="3" value="" style="shape=table;startSize=0;container=1;collapsible=0;childLayout=tableLayout;" parent="1" vertex="1">
                    <mxGeometry x="170" y="190" width="450" height="190" as="geometry"/>
                </mxCell>
                <mxCell id="4" style="shape=partialRectangle;collapsible=0;dropTarget=0;pointerEvents=0;fillColor=none;top=0;left=0;bottom=0;right=0;points=[[0,0.5],[1,0.5]];portConstraint=eastwest;" parent="3" vertex="1">
                    <mxGeometry width="450" height="60" as="geometry"/>
                </mxCell>
                <mxCell id="5" value="SOLUCION" style="shape=partialRectangle;html=1;whiteSpace=wrap;connectable=0;overflow=hidden;fillColor=#e1d5e7;top=0;left=0;bottom=0;right=0;pointerEvents=1;strokeColor=#9673a6;" parent="4" vertex="1">
                    <mxGeometry width="90" height="60" as="geometry">
                        <mxRectangle width="90" height="60" as="alternateBounds"/>
                    </mxGeometry>
                </mxCell>
                <mxCell id="6" value="Vigilante" style="shape=partialRectangle;html=1;whiteSpace=wrap;connectable=0;overflow=hidden;fillColor=#e1d5e7;top=0;left=0;bottom=0;right=0;pointerEvents=1;strokeColor=#9673a6;" parent="4" vertex="1">
                    <mxGeometry x="90" width="90" height="60" as="geometry">
                        <mxRectangle width="90" height="60" as="alternateBounds"/>
                    </mxGeometry>
                </mxCell>
                <mxCell id="7" value="Horas trabajadas por semana en un sitio x" style="shape=partialRectangle;html=1;whiteSpace=wrap;connectable=0;overflow=hidden;fillColor=#e1d5e7;top=0;left=0;bottom=0;right=0;pointerEvents=1;strokeColor=#9673a6;" parent="4" vertex="1">
                    <mxGeometry x="180" width="90" height="60" as="geometry">
                        <mxRectangle width="90" height="60" as="alternateBounds"/>
                    </mxGeometry>
                </mxCell>
                <mxCell id="8" value="Turnos a cubrir" style="shape=partialRectangle;html=1;whiteSpace=wrap;connectable=0;overflow=hidden;fillColor=#e1d5e7;top=0;left=0;bottom=0;right=0;pointerEvents=1;strokeColor=#9673a6;" parent="4" vertex="1">
                    <mxGeometry x="270" width="90" height="60" as="geometry">
                        <mxRectangle width="90" height="60" as="alternateBounds"/>
                    </mxGeometry>
                </mxCell>
                <mxCell id="9" value="Turnos faltantes" style="shape=partialRectangle;html=1;whiteSpace=wrap;connectable=0;overflow=hidden;fillColor=#e1d5e7;top=0;left=0;bottom=0;right=0;pointerEvents=1;strokeColor=#9673a6;" parent="4" vertex="1">
                    <mxGeometry x="360" width="90" height="60" as="geometry">
                        <mxRectangle width="90" height="60" as="alternateBounds"/>
                    </mxGeometry>
                </mxCell>
                <mxCell id="10" value="" style="shape=partialRectangle;collapsible=0;dropTarget=0;pointerEvents=0;fillColor=none;top=0;left=0;bottom=0;right=0;points=[[0,0.5],[1,0.5]];portConstraint=eastwest;" parent="3" vertex="1">
                    <mxGeometry y="60" width="450" height="44" as="geometry"/>
                </mxCell>
                <mxCell id="11" value="A1" style="shape=partialRectangle;html=1;whiteSpace=wrap;connectable=0;overflow=hidden;fillColor=#dae8fc;top=0;left=0;bottom=0;right=0;pointerEvents=1;strokeColor=#6c8ebf;" parent="10" vertex="1">
                    <mxGeometry width="90" height="44" as="geometry">
                        <mxRectangle width="90" height="44" as="alternateBounds"/>
                    </mxGeometry>
                </mxCell>
                <mxCell id="12" value="1,8,6,9" style="shape=partialRectangle;html=1;whiteSpace=wrap;connectable=0;overflow=hidden;fillColor=none;top=0;left=0;bottom=0;right=0;pointerEvents=1;" parent="10" vertex="1">
                    <mxGeometry x="90" width="90" height="44" as="geometry">
                        <mxRectangle width="90" height="44" as="alternateBounds"/>
                    </mxGeometry>
                </mxCell>
                <mxCell id="13" value="[30,48,48,48]" style="shape=partialRectangle;html=1;whiteSpace=wrap;connectable=0;overflow=hidden;fillColor=none;top=0;left=0;bottom=0;right=0;pointerEvents=1;" parent="10" vertex="1">
                    <mxGeometry x="180" width="90" height="44" as="geometry">
                        <mxRectangle width="90" height="44" as="alternateBounds"/>
                    </mxGeometry>
                </mxCell>
                <mxCell id="14" value="174" style="shape=partialRectangle;html=1;whiteSpace=wrap;connectable=0;overflow=hidden;fillColor=none;top=0;left=0;bottom=0;right=0;pointerEvents=1;" parent="10" vertex="1">
                    <mxGeometry x="270" width="90" height="44" as="geometry">
                        <mxRectangle width="90" height="44" as="alternateBounds"/>
                    </mxGeometry>
                </mxCell>
                <mxCell id="15" value="0" style="shape=partialRectangle;html=1;whiteSpace=wrap;connectable=0;overflow=hidden;fillColor=none;top=0;left=0;bottom=0;right=0;pointerEvents=1;" parent="10" vertex="1">
                    <mxGeometry x="360" width="90" height="44" as="geometry">
                        <mxRectangle width="90" height="44" as="alternateBounds"/>
                    </mxGeometry>
                </mxCell>
                <mxCell id="16" value="" style="shape=partialRectangle;collapsible=0;dropTarget=0;pointerEvents=0;fillColor=none;top=0;left=0;bottom=0;right=0;points=[[0,0.5],[1,0.5]];portConstraint=eastwest;" parent="3" vertex="1">
                    <mxGeometry y="104" width="450" height="43" as="geometry"/>
                </mxCell>
                <mxCell id="17" value="A2" style="shape=partialRectangle;html=1;whiteSpace=wrap;connectable=0;overflow=hidden;fillColor=#dae8fc;top=0;left=0;bottom=0;right=0;pointerEvents=1;strokeColor=#6c8ebf;" parent="16" vertex="1">
                    <mxGeometry width="90" height="43" as="geometry">
                        <mxRectangle width="90" height="43" as="alternateBounds"/>
                    </mxGeometry>
                </mxCell>
                <mxCell id="18" value="10,11,13" style="shape=partialRectangle;html=1;whiteSpace=wrap;connectable=0;overflow=hidden;fillColor=none;top=0;left=0;bottom=0;right=0;pointerEvents=1;" parent="16" vertex="1">
                    <mxGeometry x="90" width="90" height="43" as="geometry">
                        <mxRectangle width="90" height="43" as="alternateBounds"/>
                    </mxGeometry>
                </mxCell>
                <mxCell id="19" value="[52,52,52]" style="shape=partialRectangle;html=1;whiteSpace=wrap;connectable=0;overflow=hidden;fillColor=none;top=0;left=0;bottom=0;right=0;pointerEvents=1;" parent="16" vertex="1">
                    <mxGeometry x="180" width="90" height="43" as="geometry">
                        <mxRectangle width="90" height="43" as="alternateBounds"/>
                    </mxGeometry>
                </mxCell>
                <mxCell id="20" value="192" style="shape=partialRectangle;html=1;whiteSpace=wrap;connectable=0;overflow=hidden;fillColor=none;top=0;left=0;bottom=0;right=0;pointerEvents=1;" parent="16" vertex="1">
                    <mxGeometry x="270" width="90" height="43" as="geometry">
                        <mxRectangle width="90" height="43" as="alternateBounds"/>
                    </mxGeometry>
                </mxCell>
                <mxCell id="21" value="36" style="shape=partialRectangle;html=1;whiteSpace=wrap;connectable=0;overflow=hidden;fillColor=none;top=0;left=0;bottom=0;right=0;pointerEvents=1;" parent="16" vertex="1">
                    <mxGeometry x="360" width="90" height="43" as="geometry">
                        <mxRectangle width="90" height="43" as="alternateBounds"/>
                    </mxGeometry>
                </mxCell>
                <mxCell id="22" style="shape=partialRectangle;collapsible=0;dropTarget=0;pointerEvents=0;fillColor=none;top=0;left=0;bottom=0;right=0;points=[[0,0.5],[1,0.5]];portConstraint=eastwest;" parent="3" vertex="1">
                    <mxGeometry y="147" width="450" height="43" as="geometry"/>
                </mxCell>
                <mxCell id="23" value="&lt;font color=&quot;#3333ff&quot;&gt;C&lt;/font&gt;" style="shape=partialRectangle;html=1;whiteSpace=wrap;connectable=0;overflow=hidden;fillColor=#d5e8d4;top=0;left=0;bottom=0;right=0;pointerEvents=1;strokeColor=#82b366;" parent="22" vertex="1">
                    <mxGeometry width="90" height="43" as="geometry">
                        <mxRectangle width="90" height="43" as="alternateBounds"/>
                    </mxGeometry>
                </mxCell>
                <mxCell id="24" value="10,11,12,&lt;font color=&quot;#ff1940&quot;&gt;1&lt;/font&gt;" style="shape=partialRectangle;html=1;whiteSpace=wrap;connectable=0;overflow=hidden;fillColor=#d5e8d4;top=0;left=0;bottom=0;right=0;pointerEvents=1;strokeColor=#82b366;" parent="22" vertex="1">
                    <mxGeometry x="90" width="90" height="43" as="geometry">
                        <mxRectangle width="90" height="43" as="alternateBounds"/>
                    </mxGeometry>
                </mxCell>
                <mxCell id="25" value="[52,52,52,&lt;font color=&quot;#ff3333&quot;&gt;48&lt;/font&gt;]" style="shape=partialRectangle;html=1;whiteSpace=wrap;connectable=0;overflow=hidden;fillColor=#d5e8d4;top=0;left=0;bottom=0;right=0;pointerEvents=1;strokeColor=#82b366;" parent="22" vertex="1">
                    <mxGeometry x="180" width="90" height="43" as="geometry">
                        <mxRectangle width="90" height="43" as="alternateBounds"/>
                    </mxGeometry>
                </mxCell>
                <mxCell id="26" value="192" style="shape=partialRectangle;html=1;whiteSpace=wrap;connectable=0;overflow=hidden;fillColor=#d5e8d4;top=0;left=0;bottom=0;right=0;pointerEvents=1;strokeColor=#82b366;" parent="22" vertex="1">
                    <mxGeometry x="270" width="90" height="43" as="geometry">
                        <mxRectangle width="90" height="43" as="alternateBounds"/>
                    </mxGeometry>
                </mxCell>
                <mxCell id="27" value="&lt;font color=&quot;#ff005e&quot;&gt;-12&lt;/font&gt;" style="shape=partialRectangle;html=1;whiteSpace=wrap;connectable=0;overflow=hidden;fillColor=#d5e8d4;top=0;left=0;bottom=0;right=0;pointerEvents=1;strokeColor=#82b366;" parent="22" vertex="1">
                    <mxGeometry x="360" width="90" height="43" as="geometry">
                        <mxRectangle width="90" height="43" as="alternateBounds"/>
                    </mxGeometry>
                </mxCell>
                <mxCell id="28" value="" style="shape=table;startSize=0;container=1;collapsible=0;childLayout=tableLayout;" parent="1" vertex="1">
                    <mxGeometry x="170" y="20" width="450" height="104" as="geometry"/>
                </mxCell>
                <mxCell id="29" style="shape=partialRectangle;collapsible=0;dropTarget=0;pointerEvents=0;fillColor=none;top=0;left=0;bottom=0;right=0;points=[[0,0.5],[1,0.5]];portConstraint=eastwest;" parent="28" vertex="1">
                    <mxGeometry width="450" height="60" as="geometry"/>
                </mxCell>
                <mxCell id="30" value="SOLUCION" style="shape=partialRectangle;html=1;whiteSpace=wrap;connectable=0;overflow=hidden;fillColor=#e1d5e7;top=0;left=0;bottom=0;right=0;pointerEvents=1;strokeColor=#9673a6;" parent="29" vertex="1">
                    <mxGeometry width="90" height="60" as="geometry">
                        <mxRectangle width="90" height="60" as="alternateBounds"/>
                    </mxGeometry>
                </mxCell>
                <mxCell id="31" value="Vigilante" style="shape=partialRectangle;html=1;whiteSpace=wrap;connectable=0;overflow=hidden;fillColor=#e1d5e7;top=0;left=0;bottom=0;right=0;pointerEvents=1;strokeColor=#9673a6;" parent="29" vertex="1">
                    <mxGeometry x="90" width="90" height="60" as="geometry">
                        <mxRectangle width="90" height="60" as="alternateBounds"/>
                    </mxGeometry>
                </mxCell>
                <mxCell id="32" value="Horas trabajadas por semana en un sitio x" style="shape=partialRectangle;html=1;whiteSpace=wrap;connectable=0;overflow=hidden;fillColor=#e1d5e7;top=0;left=0;bottom=0;right=0;pointerEvents=1;strokeColor=#9673a6;" parent="29" vertex="1">
                    <mxGeometry x="180" width="90" height="60" as="geometry">
                        <mxRectangle width="90" height="60" as="alternateBounds"/>
                    </mxGeometry>
                </mxCell>
                <mxCell id="33" value="Turnos a cubrir" style="shape=partialRectangle;html=1;whiteSpace=wrap;connectable=0;overflow=hidden;fillColor=#e1d5e7;top=0;left=0;bottom=0;right=0;pointerEvents=1;strokeColor=#9673a6;" parent="29" vertex="1">
                    <mxGeometry x="270" width="90" height="60" as="geometry">
                        <mxRectangle width="90" height="60" as="alternateBounds"/>
                    </mxGeometry>
                </mxCell>
                <mxCell id="34" value="Turnos faltantes" style="shape=partialRectangle;html=1;whiteSpace=wrap;connectable=0;overflow=hidden;fillColor=#e1d5e7;top=0;left=0;bottom=0;right=0;pointerEvents=1;strokeColor=#9673a6;" parent="29" vertex="1">
                    <mxGeometry x="360" width="90" height="60" as="geometry">
                        <mxRectangle width="90" height="60" as="alternateBounds"/>
                    </mxGeometry>
                </mxCell>
                <mxCell id="35" value="" style="shape=partialRectangle;collapsible=0;dropTarget=0;pointerEvents=0;fillColor=none;top=0;left=0;bottom=0;right=0;points=[[0,0.5],[1,0.5]];portConstraint=eastwest;" parent="28" vertex="1">
                    <mxGeometry y="60" width="450" height="44" as="geometry"/>
                </mxCell>
                <mxCell id="36" value="B1" style="shape=partialRectangle;html=1;whiteSpace=wrap;connectable=0;overflow=hidden;fillColor=#f8cecc;top=0;left=0;bottom=0;right=0;pointerEvents=1;strokeColor=#b85450;" parent="35" vertex="1">
                    <mxGeometry width="90" height="44" as="geometry">
                        <mxRectangle width="90" height="44" as="alternateBounds"/>
                    </mxGeometry>
                </mxCell>
                <mxCell id="37" value="1,2,3,4" style="shape=partialRectangle;html=1;whiteSpace=wrap;connectable=0;overflow=hidden;fillColor=none;top=0;left=0;bottom=0;right=0;pointerEvents=1;" parent="35" vertex="1">
                    <mxGeometry x="90" width="90" height="44" as="geometry">
                        <mxRectangle width="90" height="44" as="alternateBounds"/>
                    </mxGeometry>
                </mxCell>
                <mxCell id="38" value="[48,48,48,48]" style="shape=partialRectangle;html=1;whiteSpace=wrap;connectable=0;overflow=hidden;fillColor=none;top=0;left=0;bottom=0;right=0;pointerEvents=1;" parent="35" vertex="1">
                    <mxGeometry x="180" width="90" height="44" as="geometry">
                        <mxRectangle width="90" height="44" as="alternateBounds"/>
                    </mxGeometry>
                </mxCell>
                <mxCell id="39" value="192" style="shape=partialRectangle;html=1;whiteSpace=wrap;connectable=0;overflow=hidden;fillColor=none;top=0;left=0;bottom=0;right=0;pointerEvents=1;" parent="35" vertex="1">
                    <mxGeometry x="270" width="90" height="44" as="geometry">
                        <mxRectangle width="90" height="44" as="alternateBounds"/>
                    </mxGeometry>
                </mxCell>
                <mxCell id="40" value="0" style="shape=partialRectangle;html=1;whiteSpace=wrap;connectable=0;overflow=hidden;fillColor=none;top=0;left=0;bottom=0;right=0;pointerEvents=1;" parent="35" vertex="1">
                    <mxGeometry x="360" width="90" height="44" as="geometry">
                        <mxRectangle width="90" height="44" as="alternateBounds"/>
                    </mxGeometry>
                </mxCell>
                <mxCell id="41" value="" style="shape=table;startSize=0;container=1;collapsible=0;childLayout=tableLayout;" parent="1" vertex="1">
                    <mxGeometry x="170" y="460" width="450" height="190" as="geometry"/>
                </mxCell>
                <mxCell id="42" style="shape=partialRectangle;collapsible=0;dropTarget=0;pointerEvents=0;fillColor=none;top=0;left=0;bottom=0;right=0;points=[[0,0.5],[1,0.5]];portConstraint=eastwest;" parent="41" vertex="1">
                    <mxGeometry width="450" height="60" as="geometry"/>
                </mxCell>
                <mxCell id="43" value="SOLUCION" style="shape=partialRectangle;html=1;whiteSpace=wrap;connectable=0;overflow=hidden;fillColor=#e1d5e7;top=0;left=0;bottom=0;right=0;pointerEvents=1;strokeColor=#9673a6;" parent="42" vertex="1">
                    <mxGeometry width="90" height="60" as="geometry">
                        <mxRectangle width="90" height="60" as="alternateBounds"/>
                    </mxGeometry>
                </mxCell>
                <mxCell id="44" value="Vigilante" style="shape=partialRectangle;html=1;whiteSpace=wrap;connectable=0;overflow=hidden;fillColor=#e1d5e7;top=0;left=0;bottom=0;right=0;pointerEvents=1;strokeColor=#9673a6;" parent="42" vertex="1">
                    <mxGeometry x="90" width="90" height="60" as="geometry">
                        <mxRectangle width="90" height="60" as="alternateBounds"/>
                    </mxGeometry>
                </mxCell>
                <mxCell id="45" value="Horas trabajadas por semana en un sitio x" style="shape=partialRectangle;html=1;whiteSpace=wrap;connectable=0;overflow=hidden;fillColor=#e1d5e7;top=0;left=0;bottom=0;right=0;pointerEvents=1;strokeColor=#9673a6;" parent="42" vertex="1">
                    <mxGeometry x="180" width="90" height="60" as="geometry">
                        <mxRectangle width="90" height="60" as="alternateBounds"/>
                    </mxGeometry>
                </mxCell>
                <mxCell id="46" value="Turnos a cubrir" style="shape=partialRectangle;html=1;whiteSpace=wrap;connectable=0;overflow=hidden;fillColor=#e1d5e7;top=0;left=0;bottom=0;right=0;pointerEvents=1;strokeColor=#9673a6;" parent="42" vertex="1">
                    <mxGeometry x="270" width="90" height="60" as="geometry">
                        <mxRectangle width="90" height="60" as="alternateBounds"/>
                    </mxGeometry>
                </mxCell>
                <mxCell id="47" value="Turnos faltantes" style="shape=partialRectangle;html=1;whiteSpace=wrap;connectable=0;overflow=hidden;fillColor=#e1d5e7;top=0;left=0;bottom=0;right=0;pointerEvents=1;strokeColor=#9673a6;" parent="42" vertex="1">
                    <mxGeometry x="360" width="90" height="60" as="geometry">
                        <mxRectangle width="90" height="60" as="alternateBounds"/>
                    </mxGeometry>
                </mxCell>
                <mxCell id="48" value="" style="shape=partialRectangle;collapsible=0;dropTarget=0;pointerEvents=0;fillColor=none;top=0;left=0;bottom=0;right=0;points=[[0,0.5],[1,0.5]];portConstraint=eastwest;" parent="41" vertex="1">
                    <mxGeometry y="60" width="450" height="44" as="geometry"/>
                </mxCell>
                <mxCell id="49" value="A1" style="shape=partialRectangle;html=1;whiteSpace=wrap;connectable=0;overflow=hidden;fillColor=#dae8fc;top=0;left=0;bottom=0;right=0;pointerEvents=1;strokeColor=#6c8ebf;" parent="48" vertex="1">
                    <mxGeometry width="90" height="44" as="geometry">
                        <mxRectangle width="90" height="44" as="alternateBounds"/>
                    </mxGeometry>
                </mxCell>
                <mxCell id="50" value="1,8,6,9" style="shape=partialRectangle;html=1;whiteSpace=wrap;connectable=0;overflow=hidden;fillColor=none;top=0;left=0;bottom=0;right=0;pointerEvents=1;" parent="48" vertex="1">
                    <mxGeometry x="90" width="90" height="44" as="geometry">
                        <mxRectangle width="90" height="44" as="alternateBounds"/>
                    </mxGeometry>
                </mxCell>
                <mxCell id="51" value="[&lt;font color=&quot;#ff005e&quot;&gt;4&lt;/font&gt;,48,48,48]" style="shape=partialRectangle;html=1;whiteSpace=wrap;connectable=0;overflow=hidden;fillColor=none;top=0;left=0;bottom=0;right=0;pointerEvents=1;" parent="48" vertex="1">
                    <mxGeometry x="180" width="90" height="44" as="geometry">
                        <mxRectangle width="90" height="44" as="alternateBounds"/>
                    </mxGeometry>
                </mxCell>
                <mxCell id="52" value="174" style="shape=partialRectangle;html=1;whiteSpace=wrap;connectable=0;overflow=hidden;fillColor=none;top=0;left=0;bottom=0;right=0;pointerEvents=1;" parent="48" vertex="1">
                    <mxGeometry x="270" width="90" height="44" as="geometry">
                        <mxRectangle width="90" height="44" as="alternateBounds"/>
                    </mxGeometry>
                </mxCell>
                <mxCell id="53" value="&lt;font color=&quot;#ff1940&quot;&gt;26&lt;/font&gt;" style="shape=partialRectangle;html=1;whiteSpace=wrap;connectable=0;overflow=hidden;fillColor=none;top=0;left=0;bottom=0;right=0;pointerEvents=1;" parent="48" vertex="1">
                    <mxGeometry x="360" width="90" height="44" as="geometry">
                        <mxRectangle width="90" height="44" as="alternateBounds"/>
                    </mxGeometry>
                </mxCell>
                <mxCell id="54" value="" style="shape=partialRectangle;collapsible=0;dropTarget=0;pointerEvents=0;fillColor=none;top=0;left=0;bottom=0;right=0;points=[[0,0.5],[1,0.5]];portConstraint=eastwest;" parent="41" vertex="1">
                    <mxGeometry y="104" width="450" height="43" as="geometry"/>
                </mxCell>
                <mxCell id="55" value="A2" style="shape=partialRectangle;html=1;whiteSpace=wrap;connectable=0;overflow=hidden;fillColor=#dae8fc;top=0;left=0;bottom=0;right=0;pointerEvents=1;strokeColor=#6c8ebf;" parent="54" vertex="1">
                    <mxGeometry width="90" height="43" as="geometry">
                        <mxRectangle width="90" height="43" as="alternateBounds"/>
                    </mxGeometry>
                </mxCell>
                <mxCell id="56" value="10,11,13" style="shape=partialRectangle;html=1;whiteSpace=wrap;connectable=0;overflow=hidden;fillColor=none;top=0;left=0;bottom=0;right=0;pointerEvents=1;" parent="54" vertex="1">
                    <mxGeometry x="90" width="90" height="43" as="geometry">
                        <mxRectangle width="90" height="43" as="alternateBounds"/>
                    </mxGeometry>
                </mxCell>
                <mxCell id="57" value="[52,52,52]" style="shape=partialRectangle;html=1;whiteSpace=wrap;connectable=0;overflow=hidden;fillColor=none;top=0;left=0;bottom=0;right=0;pointerEvents=1;" parent="54" vertex="1">
                    <mxGeometry x="180" width="90" height="43" as="geometry">
                        <mxRectangle width="90" height="43" as="alternateBounds"/>
                    </mxGeometry>
                </mxCell>
                <mxCell id="58" value="192" style="shape=partialRectangle;html=1;whiteSpace=wrap;connectable=0;overflow=hidden;fillColor=none;top=0;left=0;bottom=0;right=0;pointerEvents=1;" parent="54" vertex="1">
                    <mxGeometry x="270" width="90" height="43" as="geometry">
                        <mxRectangle width="90" height="43" as="alternateBounds"/>
                    </mxGeometry>
                </mxCell>
                <mxCell id="59" value="36" style="shape=partialRectangle;html=1;whiteSpace=wrap;connectable=0;overflow=hidden;fillColor=none;top=0;left=0;bottom=0;right=0;pointerEvents=1;" parent="54" vertex="1">
                    <mxGeometry x="360" width="90" height="43" as="geometry">
                        <mxRectangle width="90" height="43" as="alternateBounds"/>
                    </mxGeometry>
                </mxCell>
                <mxCell id="60" style="shape=partialRectangle;collapsible=0;dropTarget=0;pointerEvents=0;fillColor=none;top=0;left=0;bottom=0;right=0;points=[[0,0.5],[1,0.5]];portConstraint=eastwest;" parent="41" vertex="1">
                    <mxGeometry y="147" width="450" height="43" as="geometry"/>
                </mxCell>
                <mxCell id="61" value="&lt;font color=&quot;#3333ff&quot;&gt;C&lt;/font&gt;" style="shape=partialRectangle;html=1;whiteSpace=wrap;connectable=0;overflow=hidden;fillColor=#d5e8d4;top=0;left=0;bottom=0;right=0;pointerEvents=1;strokeColor=#82b366;" parent="60" vertex="1">
                    <mxGeometry width="90" height="43" as="geometry">
                        <mxRectangle width="90" height="43" as="alternateBounds"/>
                    </mxGeometry>
                </mxCell>
                <mxCell id="62" value="10,11,12,&lt;font color=&quot;#ff1940&quot;&gt;1&lt;/font&gt;" style="shape=partialRectangle;html=1;whiteSpace=wrap;connectable=0;overflow=hidden;fillColor=#d5e8d4;top=0;left=0;bottom=0;right=0;pointerEvents=1;strokeColor=#82b366;" parent="60" vertex="1">
                    <mxGeometry x="90" width="90" height="43" as="geometry">
                        <mxRectangle width="90" height="43" as="alternateBounds"/>
                    </mxGeometry>
                </mxCell>
                <mxCell id="63" value="[48,48,48,&lt;font color=&quot;#ff3333&quot;&gt;48&lt;/font&gt;]" style="shape=partialRectangle;html=1;whiteSpace=wrap;connectable=0;overflow=hidden;fillColor=#d5e8d4;top=0;left=0;bottom=0;right=0;pointerEvents=1;strokeColor=#82b366;" parent="60" vertex="1">
                    <mxGeometry x="180" width="90" height="43" as="geometry">
                        <mxRectangle width="90" height="43" as="alternateBounds"/>
                    </mxGeometry>
                </mxCell>
                <mxCell id="64" value="192" style="shape=partialRectangle;html=1;whiteSpace=wrap;connectable=0;overflow=hidden;fillColor=#d5e8d4;top=0;left=0;bottom=0;right=0;pointerEvents=1;strokeColor=#82b366;" parent="60" vertex="1">
                    <mxGeometry x="270" width="90" height="43" as="geometry">
                        <mxRectangle width="90" height="43" as="alternateBounds"/>
                    </mxGeometry>
                </mxCell>
                <mxCell id="65" value="&lt;font color=&quot;#ff005e&quot;&gt;0&lt;/font&gt;" style="shape=partialRectangle;html=1;whiteSpace=wrap;connectable=0;overflow=hidden;fillColor=#d5e8d4;top=0;left=0;bottom=0;right=0;pointerEvents=1;strokeColor=#82b366;" parent="60" vertex="1">
                    <mxGeometry x="360" width="90" height="43" as="geometry">
                        <mxRectangle width="90" height="43" as="alternateBounds"/>
                    </mxGeometry>
                </mxCell>
                <mxCell id="66" style="edgeStyle=none;html=1;fontColor=#FF1940;" parent="1" source="68" target="60" edge="1">
                    <mxGeometry relative="1" as="geometry"/>
                </mxCell>
                <mxCell id="67" style="edgeStyle=none;html=1;fontColor=#FF1940;" parent="1" source="68" target="48" edge="1">
                    <mxGeometry relative="1" as="geometry"/>
                </mxCell>
                <mxCell id="68" value="Proceso de Reparacion" style="html=1;dashed=0;whitespace=wrap;labelBackgroundColor=none;fontColor=#FF1940;fillColor=none;strokeColor=none;" parent="1" vertex="1">
                    <mxGeometry x="669" y="511" width="138" height="50" as="geometry"/>
                </mxCell>
                <mxCell id="69" value="" style="edgeStyle=none;html=1;fontColor=#FF1940;entryX=1.009;entryY=0.279;entryDx=0;entryDy=0;entryPerimeter=0;" parent="1" source="70" target="22" edge="1">
                    <mxGeometry relative="1" as="geometry"/>
                </mxCell>
                <mxCell id="70" value="Cruce" style="html=1;dashed=0;whitespace=wrap;labelBackgroundColor=none;fontColor=#FF1940;fillColor=none;strokeColor=none;" parent="1" vertex="1">
                    <mxGeometry x="688" y="323" width="100" height="50" as="geometry"/>
                </mxCell>
                <mxCell id="76" value="" style="edgeStyle=none;html=1;" parent="1" source="74" target="75" edge="1">
                    <mxGeometry relative="1" as="geometry"/>
                </mxCell>
                <mxCell id="112" value="" style="edgeStyle=none;html=1;" edge="1" parent="1" source="74" target="111">
                    <mxGeometry relative="1" as="geometry"/>
                </mxCell>
                <mxCell id="74" value="se obtiene el mejor sitio&lt;br&gt;&amp;nbsp;con respecto al finnes &lt;br&gt;que se quiere mejorar" style="html=1;dashed=0;whitespace=wrap;" parent="1" vertex="1">
                    <mxGeometry x="313" y="1000" width="170" height="60" as="geometry"/>
                </mxCell>
                <mxCell id="81" value="" style="edgeStyle=none;html=1;" parent="1" source="75" target="80" edge="1">
                    <mxGeometry relative="1" as="geometry">
                        <Array as="points">
                            <mxPoint x="401" y="1200"/>
                        </Array>
                    </mxGeometry>
                </mxCell>
                <mxCell id="75" value="Seleccion un sitio con mejor fitness &lt;br&gt;de horas extras y missing shift" style="html=1;dashed=0;whitespace=wrap;" parent="1" vertex="1">
                    <mxGeometry x="298" y="1090" width="205" height="70" as="geometry"/>
                </mxCell>
                <mxCell id="77" value="Inicio" style="html=1;dashed=0;whitespace=wrap;shape=mxgraph.dfd.start" parent="1" vertex="1">
                    <mxGeometry x="328" y="750" width="80" height="30" as="geometry"/>
                </mxCell>
                <mxCell id="105" style="edgeStyle=none;html=1;entryX=0.463;entryY=0.025;entryDx=0;entryDy=0;entryPerimeter=0;" parent="1" source="80" target="82" edge="1">
                    <mxGeometry relative="1" as="geometry"/>
                </mxCell>
                <mxCell id="80" value="obtiene vigilante" style="whiteSpace=wrap;html=1;dashed=0;" parent="1" vertex="1">
                    <mxGeometry x="338" y="1200" width="120" height="60" as="geometry"/>
                </mxCell>
                <mxCell id="86" value="" style="edgeStyle=none;html=1;exitX=0;exitY=0.5;exitDx=0;exitDy=0;entryX=0;entryY=0.5;entryDx=0;entryDy=0;" parent="1" source="82" target="80" edge="1">
                    <mxGeometry relative="1" as="geometry">
                        <mxPoint x="258" y="1367.5" as="targetPoint"/>
                        <Array as="points">
                            <mxPoint x="228" y="1364"/>
                            <mxPoint x="228" y="1230"/>
                        </Array>
                    </mxGeometry>
                </mxCell>
                <mxCell id="87" value="Si" style="edgeLabel;html=1;align=center;verticalAlign=middle;resizable=0;points=[];" parent="86" vertex="1" connectable="0">
                    <mxGeometry x="0.22" y="-1" relative="1" as="geometry">
                        <mxPoint as="offset"/>
                    </mxGeometry>
                </mxCell>
                <mxCell id="89" value="" style="edgeStyle=none;html=1;entryX=0;entryY=0.5;entryDx=0;entryDy=0;" parent="1" source="82" target="100" edge="1">
                    <mxGeometry relative="1" as="geometry">
                        <mxPoint x="548" y="1364.07" as="targetPoint"/>
                    </mxGeometry>
                </mxCell>
                <mxCell id="90" value="No" style="edgeLabel;html=1;align=center;verticalAlign=middle;resizable=0;points=[];" parent="89" vertex="1" connectable="0">
                    <mxGeometry x="-0.2908" y="1" relative="1" as="geometry">
                        <mxPoint as="offset"/>
                    </mxGeometry>
                </mxCell>
                <mxCell id="82" value="vigilanate esta en el &lt;br&gt;sitio a intercambiar ?" style="shape=rhombus;html=1;dashed=0;whitespace=wrap;perimeter=rhombusPerimeter;" parent="1" vertex="1">
                    <mxGeometry x="328" y="1298.76" width="160" height="131.25" as="geometry"/>
                </mxCell>
                <mxCell id="95" value="" style="edgeStyle=none;html=1;" parent="1" source="88" target="94" edge="1">
                    <mxGeometry relative="1" as="geometry"/>
                </mxCell>
                <mxCell id="88" value="agregar vigilante A al sitio k con sus jornadas laborales" style="whiteSpace=wrap;html=1;dashed=0;" parent="1" vertex="1">
                    <mxGeometry x="707" y="1334.3850000000002" width="120" height="60" as="geometry"/>
                </mxCell>
                <mxCell id="107" style="edgeStyle=none;html=1;" parent="1" source="94" target="106" edge="1">
                    <mxGeometry relative="1" as="geometry"/>
                </mxCell>
                <mxCell id="94" value="reparar la jornada laborales de los vigilantes del sitio K" style="whiteSpace=wrap;html=1;dashed=0;" parent="1" vertex="1">
                    <mxGeometry x="707" y="1539.9950000000001" width="120" height="60" as="geometry"/>
                </mxCell>
                <mxCell id="101" style="edgeStyle=none;html=1;" parent="1" source="100" edge="1">
                    <mxGeometry relative="1" as="geometry">
                        <mxPoint x="708" y="1364" as="targetPoint"/>
                        <Array as="points">
                            <mxPoint x="688" y="1364"/>
                        </Array>
                    </mxGeometry>
                </mxCell>
                <mxCell id="100" value="obtiene sitio" style="html=1;dashed=0;whitespace=wrap;" parent="1" vertex="1">
                    <mxGeometry x="568" y="1339.39" width="100" height="50" as="geometry"/>
                </mxCell>
                <mxCell id="108" value="Si" style="edgeStyle=none;html=1;entryX=0.25;entryY=1;entryDx=0;entryDy=0;" parent="1" source="106" target="100" edge="1">
                    <mxGeometry relative="1" as="geometry"/>
                </mxCell>
                <mxCell id="109" value="No" style="edgeStyle=none;html=1;" parent="1" source="106" target="110" edge="1">
                    <mxGeometry relative="1" as="geometry">
                        <mxPoint x="593" y="1670" as="targetPoint"/>
                    </mxGeometry>
                </mxCell>
                <mxCell id="106" value="siguiente sitio del &lt;br&gt;vigilante A!= Vacio" style="shape=rhombus;html=1;dashed=0;whitespace=wrap;perimeter=rhombusPerimeter;" parent="1" vertex="1">
                    <mxGeometry x="528" y="1524.99" width="130" height="90" as="geometry"/>
                </mxCell>
                <mxCell id="110" value="End" style="html=1;dashed=0;whitespace=wrap;shape=mxgraph.dfd.start" parent="1" vertex="1">
                    <mxGeometry x="553" y="1680" width="80" height="30" as="geometry"/>
                </mxCell>
                <mxCell id="111" value="se obtiene la poblacion&amp;nbsp;" style="html=1;dashed=0;whitespace=wrap;" vertex="1" parent="1">
                    <mxGeometry x="313" y="900" width="170" height="40" as="geometry"/>
                </mxCell>
            </root>
        </mxGraphModel>
    </diagram>
</mxfile>